HIERARCHY
ROOT Hips
{
	OFFSET 0.000000 89.005402 0.000000
	CHANNELS 6 Xposition Yposition Zposition Xrotation Yrotation Zrotation
	JOINT Spine
	{
		OFFSET 0.116900 10.681000 0.373400
		CHANNELS 3 Xrotation Yrotation Zrotation
		JOINT Spine1
		{
			OFFSET 0.000000 13.840401 0.053500
			CHANNELS 3 Xrotation Yrotation Zrotation
			JOINT Spine2
			{
				OFFSET 0.000000 14.712700 -0.366200
				CHANNELS 3 Xrotation Yrotation Zrotation
				JOINT Neck
				{
					OFFSET 0.000000 35.415497 -3.314200
					CHANNELS 3 Xrotation Yrotation Zrotation
					JOINT Head
					{
						OFFSET 0.000000 16.899200 1.218300
						CHANNELS 3 Xrotation Yrotation Zrotation
						JOINT HeadTop_End
						{
							OFFSET 0.000000 22.206207 2.192500
							CHANNELS 3 Xrotation Yrotation Zrotation
							End Site
							{
								OFFSET 0.000000 22.314178 0.000000
							}
						}
					}
				}
				JOINT LeftShoulder
				{
					OFFSET 12.896400 26.716293 -4.548400
					CHANNELS 3 Xrotation Yrotation Zrotation
					JOINT LeftArm
					{
						OFFSET 19.027000 -4.857010 -1.718400
						CHANNELS 3 Xrotation Yrotation Zrotation
						JOINT LeftForeArm
						{
							OFFSET 24.179897 0.000000 0.000000
							CHANNELS 3 Xrotation Yrotation Zrotation
							JOINT LeftHand
							{
								OFFSET 27.156403 0.000000 0.000000
								CHANNELS 3 Xrotation Yrotation Zrotation
								JOINT LeftHandIndex1
								{
									OFFSET 16.441200 0.000000 0.000000
									CHANNELS 3 Xrotation Yrotation Zrotation
									JOINT LeftHandIndex2
									{
										OFFSET 4.821899 0.000000 0.000000
										CHANNELS 3 Xrotation Yrotation Zrotation
										JOINT LeftHandIndex3
										{
											OFFSET 6.386497 0.000000 0.000000
											CHANNELS 3 Xrotation Yrotation Zrotation
											JOINT LeftHandIndex4
											{
												OFFSET 5.188988 0.000000 0.000000
												CHANNELS 3 Xrotation Yrotation Zrotation
												End Site
												{
													OFFSET -0.178703 5.185913 0.000177
												}
											}
										}
									}
								}
								JOINT LeftHandThumb1
								{
									OFFSET 6.534897 -5.032593 5.900300
									CHANNELS 3 Xrotation Yrotation Zrotation
									JOINT LeftHandThumb2
									{
										OFFSET 3.818176 -2.204422 2.204423
										CHANNELS 3 Xrotation Yrotation Zrotation
										JOINT LeftHandThumb3
										{
											OFFSET 3.252098 -1.877594 1.877601
											CHANNELS 3 Xrotation Yrotation Zrotation
											JOINT LeftHandThumb4
											{
												OFFSET 5.251778 -3.032120 3.032117
												CHANNELS 3 Xrotation Yrotation Zrotation
												End Site
												{
													OFFSET 0.000023 6.780014 0.000000
												}
											}
										}
									}
								}
							}
						}
					}
				}
				JOINT RightShoulder
				{
					OFFSET -12.896300 26.716293 -4.548400
					CHANNELS 3 Xrotation Yrotation Zrotation
					JOINT RightArm
					{
						OFFSET -19.027000 -4.857010 -1.718400
						CHANNELS 3 Xrotation Yrotation Zrotation
						JOINT RightForeArm
						{
							OFFSET -24.179897 0.000000 0.000000
							CHANNELS 3 Xrotation Yrotation Zrotation
							JOINT RightHand
							{
								OFFSET -27.156403 0.000000 0.000000
								CHANNELS 3 Xrotation Yrotation Zrotation
								JOINT RightHandThumb1
								{
									OFFSET -6.591202 -4.852203 5.988100
									CHANNELS 3 Xrotation Yrotation Zrotation
									JOINT RightHandThumb2
									{
										OFFSET -3.818176 -2.204422 2.204423
										CHANNELS 3 Xrotation Yrotation Zrotation
										JOINT RightHandThumb3
										{
											OFFSET -3.252098 -1.877594 1.877601
											CHANNELS 3 Xrotation Yrotation Zrotation
											JOINT RightHandThumb4
											{
												OFFSET -5.251778 -3.032120 3.032117
												CHANNELS 3 Xrotation Yrotation Zrotation
												End Site
												{
													OFFSET -0.000023 6.780014 0.000000
												}
											}
										}
									}
								}
								JOINT RightHandIndex1
								{
									OFFSET -16.029404 0.000000 0.000000
									CHANNELS 3 Xrotation Yrotation Zrotation
									JOINT RightHandIndex2
									{
										OFFSET -5.213303 0.000000 0.000000
										CHANNELS 3 Xrotation Yrotation Zrotation
										JOINT RightHandIndex3
										{
											OFFSET -6.386528 0.000000 0.000000
											CHANNELS 3 Xrotation Yrotation Zrotation
											JOINT RightHandIndex4
											{
												OFFSET -5.189026 0.000000 0.000000
												CHANNELS 3 Xrotation Yrotation Zrotation
												End Site
												{
													OFFSET 0.236702 5.183624 0.001972
												}
											}
										}
									}
								}
							}
						}
					}
				}
			}
		}
	}
	JOINT LeftUpLeg
	{
		OFFSET 14.073000 -7.904099 -1.463000
		CHANNELS 3 Xrotation Yrotation Zrotation
		JOINT LeftLeg
		{
			OFFSET -0.109806 -34.073280 4.093200
			CHANNELS 3 Xrotation Yrotation Zrotation
			JOINT LeftFoot
			{
				OFFSET 0.109806 -29.899420 -6.319000
				CHANNELS 3 Xrotation Yrotation Zrotation
				JOINT LeftToeBase
				{
					OFFSET 1.551100 -14.988700 20.535801
					CHANNELS 3 Xrotation Yrotation Zrotation
					JOINT LeftToe_End
					{
						OFFSET 0.221200 0.570800 13.248301
						CHANNELS 3 Xrotation Yrotation Zrotation
						End Site
						{
							OFFSET 0.000000 13.262435 0.000000
						}
					}
				}
			}
		}
	}
	JOINT RightUpLeg
	{
		OFFSET -13.839300 -7.904099 -1.463000
		CHANNELS 3 Xrotation Yrotation Zrotation
		JOINT RightLeg
		{
			OFFSET 0.109694 -34.073219 4.093300
			CHANNELS 3 Xrotation Yrotation Zrotation
			JOINT RightFoot
			{
				OFFSET -0.109694 -29.899384 -6.319200
				CHANNELS 3 Xrotation Yrotation Zrotation
				JOINT RightToeBase
				{
					OFFSET -1.551100 -14.988700 20.535801
					CHANNELS 3 Xrotation Yrotation Zrotation
					JOINT RightToe_End
					{
						OFFSET -0.221200 0.570900 13.248299
						CHANNELS 3 Xrotation Yrotation Zrotation
						End Site
						{
							OFFSET 0.000000 13.262440 0.000000
						}
					}
				}
			}
		}
	}
}
MOTION
Frames: 4
Frame Time: 0.033333
-20.215040 83.586357 43.994232 -5.010130 46.323135 4.520073 3.382642 8.974066 0.440992 0.852149 2.469846 0.111263 0.828987 2.479815 0.061389 20.434960 -9.334430 10.700763 -18.595033 -50.812250 -3.459310 -0.000000 -0.000000 0.000000 0.609544 -2.561218 -8.069331 20.803648 -51.174011 -24.917968 0.000002 -65.801680 0.000007 21.218992 -7.863847 -1.823872 7.775673 6.956321 -86.152700 10.250109 6.003570 -119.372063 9.029930 6.538651 -108.236437 0.000001 -0.000001 0.000003 4.891676 7.994783 1.884001 10.475078 36.544343 -16.206434 18.107195 67.043238 3.186301 0.000001 0.000001 0.000001 0.932087 5.692838 8.973434 -2.731869 32.895379 -9.689212 0.000001 8.564793 -0.000001 -21.458796 -0.729792 -21.466327 -0.188485 -1.802495 -2.082619 8.647151 -7.894018 -7.075698 -0.530845 24.228431 10.510484 0.000001 -0.000001 -0.000001 -0.045021 16.591253 1.173019 0.432911 -2.419463 20.286270 0.115171 -1.262842 10.421371 0.000003 -0.000002 -0.000000 -17.928473 9.044110 14.584397 15.951552 -9.533423 5.120008 -1.608743 -19.182462 -17.901953 -2.267175 0.000010 -0.000001 -0.000000 0.000000 0.000000 8.785736 -20.649622 -11.075918 17.179816 -8.826406 -2.751255 -15.945493 -14.926475 16.899590 -1.331724 0.000002 0.000000 -0.000000 -0.000001 -0.000000 
-20.290737 83.496078 43.861507 -5.355997 45.883012 4.840360 3.866355 9.063468 0.336062 0.981748 2.496472 0.088818 0.958502 2.507164 0.039462 20.137308 -9.381547 10.617235 -18.730479 -50.884872 -3.386826 0.000001 0.000000 -0.000000 0.606868 -2.494912 -7.985803 20.066360 -51.221399 -25.146600 0.000071 -66.188440 0.000074 21.120593 -7.704969 -2.120714 7.775673 6.956322 -86.152700 10.250107 6.003569 -119.372063 9.029930 6.538650 -108.236437 -0.000001 0.000000 0.000002 4.891675 7.994784 1.883999 10.475079 36.544343 -16.206432 18.107187 67.043238 3.186314 0.000001 0.000001 0.000000 0.936105 5.736026 9.009206 -2.563481 32.977683 -10.064361 0.000002 8.770616 -0.000001 -22.119088 -0.806850 -21.493601 -0.188479 -1.802499 -2.082618 8.647148 -7.893990 -7.075686 -0.530862 24.228460 10.510487 -0.000001 0.000002 -0.000001 -0.045011 16.591236 1.173018 0.432906 -2.419467 20.286263 0.115168 -1.262814 10.421376 0.000000 0.000000 0.000001 -17.944585 8.571797 14.244626 17.028785 -9.675625 5.585636 -1.834230 -18.249880 -17.960689 -1.931230 0.000000 -0.000002 -0.000000 -0.000002 -0.000000 8.239719 -20.846810 -11.780191 18.093936 -8.792568 -2.524925 -16.305405 -14.088865 17.031676 -1.378230 -0.000001 -0.000006 -0.000000 -0.000000 -0.000000 
-20.338774 83.313599 43.619675 -5.835244 45.159613 5.186798 4.543603 9.217769 0.331058 1.163055 2.543619 0.094868 1.138612 2.556487 0.046210 19.706504 -9.417810 10.384277 -18.951367 -50.684949 -3.369647 -0.000001 0.000000 -0.000000 0.603969 -2.424376 -7.899213 19.377913 -51.385053 -25.237085 -0.000008 -66.552072 -0.000000 20.791960 -7.485235 -2.359507 7.775669 6.956321 -86.152700 10.250108 6.003569 -119.372063 9.029928 6.538652 -108.236437 -0.000000 -0.000000 0.000001 4.891672 7.994785 1.883999 10.475081 36.544343 -16.206432 18.107202 67.043231 3.186302 -0.000000 0.000001 -0.000002 0.939317 5.770704 9.037682 -2.911471 33.274991 -10.420435 -0.000002 9.131684 0.000001 -22.559048 -0.901945 -21.428347 -0.188487 -1.802503 -2.082625 8.647149 -7.894000 -7.075686 -0.530856 24.228440 10.510477 -0.000001 -0.000004 0.000002 -0.045023 16.591264 1.173023 0.432918 -2.419468 20.286258 0.115163 -1.262814 10.421375 0.000001 -0.000001 -0.000000 -18.146592 7.762926 13.803157 19.104741 -9.873401 6.260884 -2.445124 -16.752929 -17.939727 -1.542215 0.000002 0.000004 -0.000000 0.000002 0.000000 7.328793 -21.037239 -12.795955 19.616631 -8.739961 -2.229187 -16.875219 -12.871707 17.205533 -1.459754 -0.000003 0.000003 0.000000 0.000000 -0.000000 
-20.303883 83.019112 43.249687 -6.268924 43.826134 5.306638 5.281648 9.554404 0.528531 1.359835 2.643234 0.152485 1.332280 2.660205 0.103613 19.208976 -9.440957 9.966593 -19.220683 -50.155595 -3.446231 0.000000 -0.000000 -0.000000 0.601783 -2.369794 -7.839035 18.718268 -51.520277 -25.359219 0.000029 -66.965756 0.000014 20.291087 -7.205297 -2.502311 7.775669 6.956322 -86.152700 10.250109 6.003571 -119.372063 9.029932 6.538651 -108.236437 -0.000001 0.000002 -0.000001 4.891671 7.994786 1.883999 10.475079 36.544347 -16.206427 18.107192 67.043238 3.186305 -0.000000 -0.000001 -0.000000 0.945174 5.829493 9.092939 -4.787481 34.080352 -10.115917 0.000001 9.677373 -0.000001 -22.066475 -0.873510 -21.377092 -0.188484 -1.802483 -2.082610 8.647146 -7.894024 -7.075702 -0.530845 24.228436 10.510477 0.000000 0.000001 -0.000000 -0.045009 16.591243 1.173022 0.432908 -2.419457 20.286268 0.115175 -1.262828 10.421374 0.000002 0.000001 0.000001 -18.630357 6.761038 13.349343 22.723411 -9.834631 7.031292 -4.175770 -14.505085 -17.049723 -1.949173 -0.000024 -0.000003 -0.000000 0.000001 0.000000 5.778905 -21.043647 -14.119804 21.861168 -8.676872 -1.934623 -17.640461 -11.042030 17.358765 -1.620552 0.000003 0.000007 0.000000 0.000000 0.000000 
